<?xml version="1.0" standalone="no"?>
<!DOCTYPE svg PUBLIC "-//W3C//DTD SVG 20010904//EN"
 "http://www.w3.org/TR/2001/REC-SVG-20010904/DTD/svg10.dtd">
<svg version="1.0" xmlns="http://www.w3.org/2000/svg"
 width="740.000000pt" height="493.000000pt" viewBox="0 0 740.000000 493.000000"
 preserveAspectRatio="xMidYMid meet">

<g transform="translate(0.000000,493.000000) scale(0.100000,-0.100000)"
fill="#000000" stroke="none">
<path d="M4547 3443 c-17 -16 -4 -54 33 -96 l40 -45 -78 -4 -77 -5 -74 49
c-78 52 -104 57 -109 21 -2 -16 7 -29 38 -49 22 -15 39 -29 37 -31 -3 -2 -33
-8 -68 -14 -94 -14 -129 -28 -129 -49 0 -37 49 -39 145 -5 39 14 71 25 73 25
2 0 -6 -12 -17 -26 -24 -31 -28 -64 -7 -64 18 0 38 19 76 76 35 50 52 56 135
52 l60 -3 -46 -32 c-52 -36 -67 -61 -43 -70 21 -8 88 25 143 71 48 40 41 40
174 9 37 -8 67 -19 67 -23 0 -4 -17 -11 -37 -15 -54 -10 -103 -32 -103 -46 0
-17 136 -5 181 16 34 16 37 16 75 -3 54 -28 149 -100 149 -114 0 -6 -27 -18
-60 -28 -74 -20 -108 -38 -102 -53 7 -20 93 -11 153 17 l58 27 53 -53 c29 -29
53 -46 53 -38 0 8 -21 36 -46 61 l-47 48 -8 100 c-9 108 -29 171 -52 171 -33
0 -36 -71 -7 -155 11 -32 18 -60 16 -63 -3 -2 -24 11 -48 31 -24 19 -69 49
-100 67 -60 33 -60 34 -84 135 -12 51 -33 85 -54 85 -37 0 -35 -48 5 -144 7
-17 5 -18 -16 -12 -13 4 -62 14 -108 22 -70 13 -88 20 -105 42 -32 43 -112
122 -123 122 -5 0 -13 -3 -16 -7z m59 -55 c47 -51 58 -68 45 -68 -14 0 -91 76
-91 90 0 18 16 10 46 -22z m328 -26 c15 -30 32 -102 23 -102 -10 0 -45 65 -52
98 -8 40 9 43 29 4z m-571 -28 c21 -14 36 -28 34 -31 -7 -6 -61 22 -76 41 -20
24 0 19 42 -10z m847 -107 c7 -29 10 -62 8 -72 -4 -17 -7 -16 -18 10 -7 17
-15 52 -18 79 -7 65 13 54 28 -17z m-569 13 c-42 -31 -84 -53 -80 -42 5 14 92
71 99 65 3 -2 -6 -13 -19 -23z m-346 1 c6 -11 -55 -31 -92 -31 -38 0 -26 16
20 27 57 14 65 15 72 4z m615 -51 c-20 -13 -43 -13 -35 0 3 6 16 10 28 10 18
0 19 -2 7 -10z m244 -170 c-15 -15 -74 -30 -74 -20 0 5 15 14 33 19 44 13 53
13 41 1z"/>
<path d="M2908 2747 c-43 -100 -84 -199 -93 -219 l-15 -38 31 0 c27 0 33 5 52
50 l21 50 81 0 81 0 18 -50 c17 -48 19 -50 57 -50 35 0 39 2 31 18 -5 9 -46
105 -92 212 -45 107 -85 198 -88 202 -4 4 -42 -75 -84 -175z m110 -40 c12 -33
22 -61 22 -63 0 -2 -25 -4 -55 -4 -30 0 -55 4 -55 9 0 21 53 131 60 124 4 -4
16 -34 28 -66z"/>
<path d="M4770 2712 l0 -222 35 0 35 0 0 142 0 143 103 -100 c56 -55 126 -122
155 -150 l52 -49 0 222 0 222 -30 0 -30 0 0 -145 c0 -80 -3 -145 -7 -145 -4 0
-76 69 -160 152 l-153 153 0 -223z"/>
<path d="M2530 2705 l0 -215 33 0 32 0 0 87 0 88 83 3 82 3 0 29 0 30 -85 0
-86 0 3 63 3 62 98 3 97 3 0 29 0 30 -130 0 -130 0 0 -215z"/>
<path d="M3314 2906 c-44 -20 -64 -53 -64 -106 0 -56 21 -79 112 -124 69 -35
84 -51 75 -88 -12 -47 -86 -62 -149 -30 -34 18 -36 18 -47 0 -18 -28 -14 -37
27 -54 50 -21 139 -21 180 0 61 31 80 129 35 178 -10 11 -51 36 -90 54 -55 26
-74 41 -79 60 -14 54 55 81 136 53 33 -12 49 -3 50 27 0 32 -134 54 -186 30z"/>
<path d="M3607 2913 c-4 -3 -7 -100 -7 -215 l0 -208 35 0 35 0 0 90 0 90 110
0 110 0 0 -90 0 -90 30 0 30 0 0 215 0 215 -30 0 -29 0 -3 -92 -3 -93 -107 -3
-108 -3 0 96 0 95 -28 0 c-16 0 -32 -3 -35 -7z"/>
<path d="M4080 2705 l0 -215 30 0 30 0 0 215 0 215 -30 0 -30 0 0 -215z"/>
<path d="M4363 2899 c-79 -39 -123 -111 -123 -201 0 -173 193 -271 342 -173
110 73 121 242 21 337 -62 60 -163 75 -240 37z m151 -53 c78 -32 113 -129 78
-209 -29 -65 -70 -89 -145 -84 -49 3 -62 8 -92 37 -44 42 -60 95 -45 149 26
96 116 144 204 107z"/>
<path d="M4404 2734 c-23 -34 -9 -75 29 -88 34 -12 58 0 71 37 13 37 -15 77
-54 77 -21 0 -35 -8 -46 -26z"/>
<path d="M1970 2305 l0 -465 1730 0 1730 0 0 465 0 465 -50 0 c-38 0 -50 -4
-50 -15 0 -10 11 -15 35 -15 l35 0 0 -435 0 -435 -1700 0 -1700 0 0 435 0 435
205 0 c176 0 205 2 205 15 0 13 -31 15 -220 15 l-220 0 0 -465z"/>
<path d="M3203 2318 c-80 -21 -112 -131 -54 -188 36 -37 72 -46 122 -31 77 23
105 122 52 181 -33 36 -76 50 -120 38z m103 -42 c38 -38 43 -70 19 -116 -34
-66 -121 -76 -169 -19 -30 35 -33 76 -11 119 19 37 41 49 89 50 30 0 45 -7 72
-34z"/>
<path d="M2554 2296 c-21 -33 -8 -54 53 -86 36 -19 49 -31 51 -51 6 -52 -37
-69 -113 -44 -14 4 -12 2 5 -9 54 -33 123 -6 123 48 0 33 -11 44 -66 71 -32
15 -43 26 -45 47 -3 22 2 29 23 34 14 3 39 4 56 0 19 -3 28 -2 24 4 -3 6 -26
10 -50 10 -36 0 -48 -5 -61 -24z"/>
<path d="M2852 2313 l37 -4 4 -112 3 -112 2 112 2 112 38 4 c20 2 1 4 -43 4
-44 0 -63 -2 -43 -4z"/>
<path d="M3522 2203 c1 -65 3 -94 5 -65 4 50 5 52 33 52 23 0 33 -8 54 -44 15
-25 31 -48 38 -52 12 -8 11 -6 -29 58 l-23 38 20 20 c45 45 10 110 -60 110
l-40 0 2 -117z m93 83 c28 -43 -2 -86 -61 -86 -22 0 -24 3 -24 55 l0 55 35 0
c25 0 39 -6 50 -24z"/>
<path d="M3827 2213 c2 -60 3 -111 3 -115 0 -5 33 -7 73 -6 l72 2 -67 3 -68 4
0 49 0 49 58 4 57 3 -57 2 -58 2 0 50 0 49 63 4 62 3 -70 2 -70 2 2 -107z"/>
<path d="M4347 2123 c161 -2 425 -2 585 0 161 1 30 2 -292 2 -322 0 -453 -1
-293 -2z"/>
<path d="M4153 1675 c0 -22 2 -30 4 -17 2 12 2 30 0 40 -3 9 -5 -1 -4 -23z"/>
<path d="M4181 1673 c2 -32 3 -34 6 -9 l5 28 26 -23 c24 -22 24 -21 -2 9 -17
17 -31 32 -33 32 -2 0 -2 -17 -2 -37z"/>
<path d="M4612 1698 c-7 -7 -12 -19 -11 -27 0 -10 4 -7 9 7 5 12 14 22 20 22
6 0 15 -10 20 -22 5 -14 9 -17 9 -7 1 15 -17 39 -29 39 -3 0 -11 -5 -18 -12z"/>
<path d="M4710 1693 c0 -10 4 -14 8 -8 4 6 11 13 16 18 5 4 2 7 -7 7 -10 0
-17 -8 -17 -17z"/>
<path d="M5002 1675 c0 -22 2 -32 5 -22 2 9 13 17 23 17 10 0 21 -8 23 -17 3
-12 5 -9 6 8 1 23 -2 26 -23 22 -17 -4 -25 0 -29 14 -3 10 -5 0 -5 -22z"/>
<path d="M5120 1709 c0 -4 7 -22 15 -40 11 -27 14 -30 15 -12 0 12 5 25 10 28
6 3 10 11 10 18 0 6 -6 2 -14 -8 -13 -18 -13 -18 -24 1 -6 10 -12 16 -12 13z"/>
<path d="M5190 1695 c-7 -9 -11 -17 -9 -20 3 -2 10 5 17 15 14 24 10 26 -8 5z"/>
<path d="M5240 1693 c12 -18 12 -24 -1 -40 -13 -16 -13 -17 4 -4 21 17 22 35
0 52 -15 13 -15 12 -3 -8z"/>
<path d="M4104 1676 c10 -8 15 -20 10 -27 -4 -8 -3 -10 4 -5 18 11 14 24 -10
36 -22 10 -22 10 -4 -4z"/>
<path d="M4840 1684 c0 -13 18 -39 24 -34 2 3 -2 14 -10 24 -8 11 -14 16 -14
10z"/>
<path d="M4358 1673 c6 -2 18 -2 25 0 6 3 1 5 -13 5 -14 0 -19 -2 -12 -5z"/>
<path d="M4810 1671 c0 -6 4 -13 10 -16 6 -3 7 1 4 9 -7 18 -14 21 -14 7z"/>
<path d="M4270 1661 c0 -6 4 -13 10 -16 6 -3 7 1 4 9 -7 18 -14 21 -14 7z"/>
<path d="M4560 1655 c-7 -9 -8 -15 -2 -15 5 0 12 7 16 15 3 8 4 15 2 15 -2 0
-9 -7 -16 -15z"/>
<path d="M4618 1643 c6 -2 18 -2 25 0 6 3 1 5 -13 5 -14 0 -19 -2 -12 -5z"/>
</g>
</svg>
