<?xml version="1.0" standalone="no"?>
<!DOCTYPE svg PUBLIC "-//W3C//DTD SVG 20010904//EN"
 "http://www.w3.org/TR/2001/REC-SVG-20010904/DTD/svg10.dtd">
<svg version="1.0" xmlns="http://www.w3.org/2000/svg"
 width="260.000000pt" height="280.000000pt" viewBox="0 0 260.000000 280.000000"
 preserveAspectRatio="xMidYMid meet">

<g transform="translate(0.000000,280.000000) scale(0.100000,-0.100000)"
fill="#000000" stroke="none">
<path d="M122 2108 c-14 -14 -17 -1174 -4 -1196 6 -9 38 -12 123 -10 l114 3 5
240 5 240 220 3 220 2 0 108 c0 94 3 113 26 162 31 67 104 142 173 178 46 24
62 27 156 27 91 0 111 -4 150 -24 63 -33 124 -85 150 -126 12 -19 26 -35 31
-35 5 0 9 71 9 163 0 187 3 179 -90 220 -82 36 -155 51 -250 51 -172 -1 -296
-52 -418 -172 -88 -85 -123 -140 -157 -240 l-22 -67 -102 -3 -101 -3 0 121 0
120 138 0 138 0 59 61 c33 34 79 75 102 92 47 33 61 60 43 82 -11 13 -68 15
-359 15 -257 0 -350 -3 -359 -12z"/>
<path d="M2262 2108 c-9 -9 -12 -95 -12 -325 0 -172 -3 -313 -6 -313 -8 0 -56
40 -124 104 -75 69 -156 144 -275 252 -55 50 -145 132 -200 182 -55 51 -103
92 -107 92 -5 0 -8 -138 -8 -306 0 -386 -10 -434 -115 -539 -58 -58 -117 -89
-198 -105 -132 -26 -287 44 -364 165 l-28 45 -128 0 c-149 0 -142 10 -80 -120
47 -98 178 -232 268 -274 105 -50 152 -60 275 -60 203 0 338 64 472 222 82 96
122 198 134 340 3 45 9 82 13 82 6 0 22 -14 131 -114 30 -28 100 -92 155 -142
55 -50 170 -155 255 -232 85 -78 160 -142 167 -142 10 0 13 122 13 594 0 532
-2 594 -16 600 -30 11 -209 7 -222 -6z"/>
<path d="M1740 1265 c0 -38 -100 -177 -167 -232 -42 -34 -44 -39 -41 -82 l3
-46 109 -3 c81 -2 112 1 118 10 4 7 8 93 8 191 0 151 -2 177 -15 177 -8 0 -15
-7 -15 -15z"/>
</g>
</svg>
